<svg xmlns="http://www.w3.org/2000/svg" xmlns:xlink="http://www.w3.org/1999/xlink" width="1920" zoomAndPan="magnify" viewBox="0 0 1440 809.999993" height="1080" preserveAspectRatio="xMidYMid meet" version="1.0"><defs><g/></defs><g fill="#000000" fill-opacity="1"><g transform="translate(93.821978, 169.719954)"><g><path d="M 36.921875 1.046875 C 30.554688 1.046875 24.820312 -0.320312 19.71875 -3.0625 C 14.625 -5.800781 10.628906 -9.578125 7.734375 -14.390625 C 4.847656 -19.203125 3.40625 -24.613281 3.40625 -30.625 C 3.40625 -36.625 4.847656 -42.03125 7.734375 -46.84375 C 10.628906 -51.65625 14.625 -55.429688 19.71875 -58.171875 C 24.820312 -60.910156 30.554688 -62.28125 36.921875 -62.28125 C 43.273438 -62.28125 48.988281 -60.910156 54.0625 -58.171875 C 59.132812 -55.429688 63.128906 -51.65625 66.046875 -46.84375 C 68.960938 -42.03125 70.421875 -36.625 70.421875 -30.625 C 70.421875 -24.613281 68.960938 -19.203125 66.046875 -14.390625 C 63.128906 -9.578125 59.132812 -5.800781 54.0625 -3.0625 C 48.988281 -0.320312 43.273438 1.046875 36.921875 1.046875 Z M 36.921875 -11.015625 C 40.535156 -11.015625 43.800781 -11.847656 46.71875 -13.515625 C 49.632812 -15.179688 51.921875 -17.5 53.578125 -20.46875 C 55.242188 -23.445312 56.078125 -26.832031 56.078125 -30.625 C 56.078125 -34.414062 55.242188 -37.796875 53.578125 -40.765625 C 51.921875 -43.742188 49.632812 -46.0625 46.71875 -47.71875 C 43.800781 -49.382812 40.535156 -50.21875 36.921875 -50.21875 C 33.304688 -50.21875 30.039062 -49.382812 27.125 -47.71875 C 24.207031 -46.0625 21.914062 -43.742188 20.25 -40.765625 C 18.59375 -37.796875 17.765625 -34.414062 17.765625 -30.625 C 17.765625 -26.832031 18.59375 -23.445312 20.25 -20.46875 C 21.914062 -17.5 24.207031 -15.179688 27.125 -13.515625 C 30.039062 -11.847656 33.304688 -11.015625 36.921875 -11.015625 Z M 36.921875 -11.015625 "/></g></g></g><g fill="#000000" fill-opacity="1"><g transform="translate(311.019336, 169.719954)"><g><path d="M 36.921875 1.046875 C 30.554688 1.046875 24.820312 -0.320312 19.71875 -3.0625 C 14.625 -5.800781 10.628906 -9.578125 7.734375 -14.390625 C 4.847656 -19.203125 3.40625 -24.613281 3.40625 -30.625 C 3.40625 -36.625 4.847656 -42.03125 7.734375 -46.84375 C 10.628906 -51.65625 14.625 -55.429688 19.71875 -58.171875 C 24.820312 -60.910156 30.554688 -62.28125 36.921875 -62.28125 C 43.273438 -62.28125 48.988281 -60.910156 54.0625 -58.171875 C 59.132812 -55.429688 63.128906 -51.65625 66.046875 -46.84375 C 68.960938 -42.03125 70.421875 -36.625 70.421875 -30.625 C 70.421875 -24.613281 68.960938 -19.203125 66.046875 -14.390625 C 63.128906 -9.578125 59.132812 -5.800781 54.0625 -3.0625 C 48.988281 -0.320312 43.273438 1.046875 36.921875 1.046875 Z M 36.921875 -11.015625 C 40.535156 -11.015625 43.800781 -11.847656 46.71875 -13.515625 C 49.632812 -15.179688 51.921875 -17.5 53.578125 -20.46875 C 55.242188 -23.445312 56.078125 -26.832031 56.078125 -30.625 C 56.078125 -34.414062 55.242188 -37.796875 53.578125 -40.765625 C 51.921875 -43.742188 49.632812 -46.0625 46.71875 -47.71875 C 43.800781 -49.382812 40.535156 -50.21875 36.921875 -50.21875 C 33.304688 -50.21875 30.039062 -49.382812 27.125 -47.71875 C 24.207031 -46.0625 21.914062 -43.742188 20.25 -40.765625 C 18.59375 -37.796875 17.765625 -34.414062 17.765625 -30.625 C 17.765625 -26.832031 18.59375 -23.445312 20.25 -20.46875 C 21.914062 -17.5 24.207031 -15.179688 27.125 -13.515625 C 30.039062 -11.847656 33.304688 -11.015625 36.921875 -11.015625 Z M 36.921875 -11.015625 "/></g></g></g><g fill="#9d33bb" fill-opacity="1"><g transform="translate(194.955964, 161.96529)"><g><path d="M 11.453125 -30.703125 C 9.066406 -30.703125 7.054688 -31.519531 5.421875 -33.15625 C 3.785156 -34.789062 2.96875 -36.832031 2.96875 -39.28125 C 2.96875 -41.789062 3.785156 -43.816406 5.421875 -45.359375 C 7.054688 -46.898438 9.066406 -47.671875 11.453125 -47.671875 C 13.847656 -47.671875 15.863281 -46.898438 17.5 -45.359375 C 19.132812 -43.816406 19.953125 -41.789062 19.953125 -39.28125 C 19.953125 -36.832031 19.132812 -34.789062 17.5 -33.15625 C 15.863281 -31.519531 13.847656 -30.703125 11.453125 -30.703125 Z M 11.453125 0.703125 C 9.066406 0.703125 7.054688 -0.113281 5.421875 -1.75 C 3.785156 -3.382812 2.96875 -5.425781 2.96875 -7.875 C 2.96875 -10.382812 3.785156 -12.410156 5.421875 -13.953125 C 7.054688 -15.492188 9.066406 -16.265625 11.453125 -16.265625 C 13.847656 -16.265625 15.863281 -15.492188 17.5 -13.953125 C 19.132812 -12.410156 19.953125 -10.382812 19.953125 -7.875 C 19.953125 -5.425781 19.132812 -3.382812 17.5 -1.75 C 15.863281 -0.113281 13.847656 0.703125 11.453125 0.703125 Z M 11.453125 0.703125 "/></g></g></g><g fill="#9d33bb" fill-opacity="1"><g transform="translate(265.183644, 161.96529)"><g><path d="M 11.453125 -30.703125 C 9.066406 -30.703125 7.054688 -31.519531 5.421875 -33.15625 C 3.785156 -34.789062 2.96875 -36.832031 2.96875 -39.28125 C 2.96875 -41.789062 3.785156 -43.816406 5.421875 -45.359375 C 7.054688 -46.898438 9.066406 -47.671875 11.453125 -47.671875 C 13.847656 -47.671875 15.863281 -46.898438 17.5 -45.359375 C 19.132812 -43.816406 19.953125 -41.789062 19.953125 -39.28125 C 19.953125 -36.832031 19.132812 -34.789062 17.5 -33.15625 C 15.863281 -31.519531 13.847656 -30.703125 11.453125 -30.703125 Z M 11.453125 0.703125 C 9.066406 0.703125 7.054688 -0.113281 5.421875 -1.75 C 3.785156 -3.382812 2.96875 -5.425781 2.96875 -7.875 C 2.96875 -10.382812 3.785156 -12.410156 5.421875 -13.953125 C 7.054688 -15.492188 9.066406 -16.265625 11.453125 -16.265625 C 13.847656 -16.265625 15.863281 -15.492188 17.5 -13.953125 C 19.132812 -12.410156 19.953125 -10.382812 19.953125 -7.875 C 19.953125 -5.425781 19.132812 -3.382812 17.5 -1.75 C 15.863281 -0.113281 13.847656 0.703125 11.453125 0.703125 Z M 11.453125 0.703125 "/></g></g></g><g fill="#000000" fill-opacity="1"><g transform="translate(420.736161, 169.719954)"><g><path d="M 6.125 -43.3125 L 44.171875 -43.3125 L 44.171875 -38.140625 L 6.125 -38.140625 Z M 6.125 -23.09375 L 44.171875 -23.09375 L 44.171875 -17.9375 L 6.125 -17.9375 Z M 6.125 -23.09375 "/></g></g></g><g fill="#000000" fill-opacity="1"><g transform="translate(471.034839, 169.719954)"><g><path d="M 44.171875 -33.5 L 44.171875 -27.734375 L 6.125 -12.515625 L 6.125 -17.9375 L 38.3125 -30.625 L 6.125 -43.3125 L 6.125 -48.8125 Z M 44.171875 -33.5 "/></g></g></g><g fill="#000000" fill-opacity="1"><g transform="translate(560.242178, 169.719954)"><g><path d="M 36.921875 1.046875 C 30.554688 1.046875 24.820312 -0.320312 19.71875 -3.0625 C 14.625 -5.800781 10.628906 -9.578125 7.734375 -14.390625 C 4.847656 -19.203125 3.40625 -24.613281 3.40625 -30.625 C 3.40625 -36.625 4.847656 -42.03125 7.734375 -46.84375 C 10.628906 -51.65625 14.625 -55.429688 19.71875 -58.171875 C 24.820312 -60.910156 30.554688 -62.28125 36.921875 -62.28125 C 43.273438 -62.28125 48.988281 -60.910156 54.0625 -58.171875 C 59.132812 -55.429688 63.128906 -51.65625 66.046875 -46.84375 C 68.960938 -42.03125 70.421875 -36.625 70.421875 -30.625 C 70.421875 -24.613281 68.960938 -19.203125 66.046875 -14.390625 C 63.128906 -9.578125 59.132812 -5.800781 54.0625 -3.0625 C 48.988281 -0.320312 43.273438 1.046875 36.921875 1.046875 Z M 36.921875 -11.015625 C 40.535156 -11.015625 43.800781 -11.847656 46.71875 -13.515625 C 49.632812 -15.179688 51.921875 -17.5 53.578125 -20.46875 C 55.242188 -23.445312 56.078125 -26.832031 56.078125 -30.625 C 56.078125 -34.414062 55.242188 -37.796875 53.578125 -40.765625 C 51.921875 -43.742188 49.632812 -46.0625 46.71875 -47.71875 C 43.800781 -49.382812 40.535156 -50.21875 36.921875 -50.21875 C 33.304688 -50.21875 30.039062 -49.382812 27.125 -47.71875 C 24.207031 -46.0625 21.914062 -43.742188 20.25 -40.765625 C 18.59375 -37.796875 17.765625 -34.414062 17.765625 -30.625 C 17.765625 -26.832031 18.59375 -23.445312 20.25 -20.46875 C 21.914062 -17.5 24.207031 -15.179688 27.125 -13.515625 C 30.039062 -11.847656 33.304688 -11.015625 36.921875 -11.015625 Z M 36.921875 -11.015625 "/></g></g></g><g fill="#000000" fill-opacity="1"><g transform="translate(707.450899, 169.719954)"><g><path d="M 36.921875 1.046875 C 30.554688 1.046875 24.820312 -0.320312 19.71875 -3.0625 C 14.625 -5.800781 10.628906 -9.578125 7.734375 -14.390625 C 4.847656 -19.203125 3.40625 -24.613281 3.40625 -30.625 C 3.40625 -36.625 4.847656 -42.03125 7.734375 -46.84375 C 10.628906 -51.65625 14.625 -55.429688 19.71875 -58.171875 C 24.820312 -60.910156 30.554688 -62.28125 36.921875 -62.28125 C 43.273438 -62.28125 48.988281 -60.910156 54.0625 -58.171875 C 59.132812 -55.429688 63.128906 -51.65625 66.046875 -46.84375 C 68.960938 -42.03125 70.421875 -36.625 70.421875 -30.625 C 70.421875 -24.613281 68.960938 -19.203125 66.046875 -14.390625 C 63.128906 -9.578125 59.132812 -5.800781 54.0625 -3.0625 C 48.988281 -0.320312 43.273438 1.046875 36.921875 1.046875 Z M 36.921875 -11.015625 C 40.535156 -11.015625 43.800781 -11.847656 46.71875 -13.515625 C 49.632812 -15.179688 51.921875 -17.5 53.578125 -20.46875 C 55.242188 -23.445312 56.078125 -26.832031 56.078125 -30.625 C 56.078125 -34.414062 55.242188 -37.796875 53.578125 -40.765625 C 51.921875 -43.742188 49.632812 -46.0625 46.71875 -47.71875 C 43.800781 -49.382812 40.535156 -50.21875 36.921875 -50.21875 C 33.304688 -50.21875 30.039062 -49.382812 27.125 -47.71875 C 24.207031 -46.0625 21.914062 -43.742188 20.25 -40.765625 C 18.59375 -37.796875 17.765625 -34.414062 17.765625 -30.625 C 17.765625 -26.832031 18.59375 -23.445312 20.25 -20.46875 C 21.914062 -17.5 24.207031 -15.179688 27.125 -13.515625 C 30.039062 -11.847656 33.304688 -11.015625 36.921875 -11.015625 Z M 36.921875 -11.015625 "/></g></g></g><g fill="#000000" fill-opacity="1"><g transform="translate(820.187773, 164.251641)"><g><path d="M 6.125 -43.3125 L 44.171875 -43.3125 L 44.171875 -38.140625 L 6.125 -38.140625 Z M 6.125 -23.09375 L 44.171875 -23.09375 L 44.171875 -17.9375 L 6.125 -17.9375 Z M 6.125 -23.09375 "/></g></g></g><g fill="#000000" fill-opacity="1"><g transform="translate(870.486451, 164.251641)"><g><path d="M 44.171875 -33.5 L 44.171875 -27.734375 L 6.125 -12.515625 L 6.125 -17.9375 L 38.3125 -30.625 L 6.125 -43.3125 L 6.125 -48.8125 Z M 44.171875 -33.5 "/></g></g></g><g fill="#000000" fill-opacity="1"><g transform="translate(959.693934, 164.251641)"><g><path d="M 36.921875 1.046875 C 30.554688 1.046875 24.820312 -0.320312 19.71875 -3.0625 C 14.625 -5.800781 10.628906 -9.578125 7.734375 -14.390625 C 4.847656 -19.203125 3.40625 -24.613281 3.40625 -30.625 C 3.40625 -36.625 4.847656 -42.03125 7.734375 -46.84375 C 10.628906 -51.65625 14.625 -55.429688 19.71875 -58.171875 C 24.820312 -60.910156 30.554688 -62.28125 36.921875 -62.28125 C 43.273438 -62.28125 48.988281 -60.910156 54.0625 -58.171875 C 59.132812 -55.429688 63.128906 -51.65625 66.046875 -46.84375 C 68.960938 -42.03125 70.421875 -36.625 70.421875 -30.625 C 70.421875 -24.613281 68.960938 -19.203125 66.046875 -14.390625 C 63.128906 -9.578125 59.132812 -5.800781 54.0625 -3.0625 C 48.988281 -0.320312 43.273438 1.046875 36.921875 1.046875 Z M 36.921875 -11.015625 C 40.535156 -11.015625 43.800781 -11.847656 46.71875 -13.515625 C 49.632812 -15.179688 51.921875 -17.5 53.578125 -20.46875 C 55.242188 -23.445312 56.078125 -26.832031 56.078125 -30.625 C 56.078125 -34.414062 55.242188 -37.796875 53.578125 -40.765625 C 51.921875 -43.742188 49.632812 -46.0625 46.71875 -47.71875 C 43.800781 -49.382812 40.535156 -50.21875 36.921875 -50.21875 C 33.304688 -50.21875 30.039062 -49.382812 27.125 -47.71875 C 24.207031 -46.0625 21.914062 -43.742188 20.25 -40.765625 C 18.59375 -37.796875 17.765625 -34.414062 17.765625 -30.625 C 17.765625 -26.832031 18.59375 -23.445312 20.25 -20.46875 C 21.914062 -17.5 24.207031 -15.179688 27.125 -13.515625 C 30.039062 -11.847656 33.304688 -11.015625 36.921875 -11.015625 Z M 36.921875 -11.015625 "/></g></g></g><g fill="#000000" fill-opacity="1"><g transform="translate(1031.965274, 171.990579)"><g><path d="M 32.78125 -7.703125 L 32.78125 0 L 1.921875 0 L 1.921875 -6.125 L 17.671875 -21 C 19.347656 -22.59375 20.476562 -23.960938 21.0625 -25.109375 C 21.644531 -26.253906 21.9375 -27.390625 21.9375 -28.515625 C 21.9375 -30.148438 21.378906 -31.40625 20.265625 -32.28125 C 19.160156 -33.15625 17.539062 -33.59375 15.40625 -33.59375 C 13.613281 -33.59375 12 -33.253906 10.5625 -32.578125 C 9.125 -31.898438 7.914062 -30.878906 6.9375 -29.515625 L 0.0625 -33.953125 C 1.65625 -36.316406 3.847656 -38.171875 6.640625 -39.515625 C 9.441406 -40.859375 12.65625 -41.53125 16.28125 -41.53125 C 19.3125 -41.53125 21.960938 -41.035156 24.234375 -40.046875 C 26.503906 -39.054688 28.269531 -37.65625 29.53125 -35.84375 C 30.800781 -34.03125 31.4375 -31.898438 31.4375 -29.453125 C 31.4375 -27.234375 30.96875 -25.148438 30.03125 -23.203125 C 29.101562 -21.265625 27.296875 -19.050781 24.609375 -16.5625 L 15.21875 -7.703125 Z M 32.78125 -7.703125 "/></g></g></g><g fill="#9d33bb" fill-opacity="1"><g transform="translate(648.897166, 124.472346)"><g><path d="M 0 0 L 43.734375 0 L 43.734375 7.875 L 0 7.875 Z M 0 0 "/></g></g></g><g fill="#9d33bb" fill-opacity="1"><g transform="translate(648.897166, 145.560355)"><g><path d="M 0 0 L 43.734375 0 L 43.734375 7.875 L 0 7.875 Z M 0 0 "/></g></g></g><g fill="#000000" fill-opacity="1"><g transform="translate(326.323824, 64.76645)"><g><path d="M 30.703125 11.453125 C 30.703125 9.066406 31.519531 7.054688 33.15625 5.421875 C 34.789062 3.785156 36.832031 2.96875 39.28125 2.96875 C 41.789062 2.96875 43.816406 3.785156 45.359375 5.421875 C 46.898438 7.054688 47.671875 9.066406 47.671875 11.453125 C 47.671875 13.847656 46.898438 15.863281 45.359375 17.5 C 43.816406 19.132812 41.789062 19.953125 39.28125 19.953125 C 36.832031 19.953125 34.789062 19.132812 33.15625 17.5 C 31.519531 15.863281 30.703125 13.847656 30.703125 11.453125 Z M -0.703125 11.453125 C -0.703125 9.066406 0.113281 7.054688 1.75 5.421875 C 3.382812 3.785156 5.425781 2.96875 7.875 2.96875 C 10.382812 2.96875 12.410156 3.785156 13.953125 5.421875 C 15.492188 7.054688 16.265625 9.066406 16.265625 11.453125 C 16.265625 13.847656 15.492188 15.863281 13.953125 17.5 C 12.410156 19.132812 10.382812 19.953125 7.875 19.953125 C 5.425781 19.953125 3.382812 19.132812 1.75 17.5 C 0.113281 15.863281 -0.703125 13.847656 -0.703125 11.453125 Z M -0.703125 11.453125 "/></g></g></g><g fill="#000000" fill-opacity="1"><g transform="translate(326.323824, 189.401422)"><g><path d="M 30.703125 11.453125 C 30.703125 9.066406 31.519531 7.054688 33.15625 5.421875 C 34.789062 3.785156 36.832031 2.96875 39.28125 2.96875 C 41.789062 2.96875 43.816406 3.785156 45.359375 5.421875 C 46.898438 7.054688 47.671875 9.066406 47.671875 11.453125 C 47.671875 13.847656 46.898438 15.863281 45.359375 17.5 C 43.816406 19.132812 41.789062 19.953125 39.28125 19.953125 C 36.832031 19.953125 34.789062 19.132812 33.15625 17.5 C 31.519531 15.863281 30.703125 13.847656 30.703125 11.453125 Z M -0.703125 11.453125 C -0.703125 9.066406 0.113281 7.054688 1.75 5.421875 C 3.382812 3.785156 5.425781 2.96875 7.875 2.96875 C 10.382812 2.96875 12.410156 3.785156 13.953125 5.421875 C 15.492188 7.054688 16.265625 9.066406 16.265625 11.453125 C 16.265625 13.847656 15.492188 15.863281 13.953125 17.5 C 12.410156 19.132812 10.382812 19.953125 7.875 19.953125 C 5.425781 19.953125 3.382812 19.132812 1.75 17.5 C 0.113281 15.863281 -0.703125 13.847656 -0.703125 11.453125 Z M -0.703125 11.453125 "/></g></g></g><g fill="#000000" fill-opacity="1"><g transform="translate(107.45602, 68.473889)"><g><path d="M 30.703125 11.453125 C 30.703125 9.066406 31.519531 7.054688 33.15625 5.421875 C 34.789062 3.785156 36.832031 2.96875 39.28125 2.96875 C 41.789062 2.96875 43.816406 3.785156 45.359375 5.421875 C 46.898438 7.054688 47.671875 9.066406 47.671875 11.453125 C 47.671875 13.847656 46.898438 15.863281 45.359375 17.5 C 43.816406 19.132812 41.789062 19.953125 39.28125 19.953125 C 36.832031 19.953125 34.789062 19.132812 33.15625 17.5 C 31.519531 15.863281 30.703125 13.847656 30.703125 11.453125 Z M -0.703125 11.453125 C -0.703125 9.066406 0.113281 7.054688 1.75 5.421875 C 3.382812 3.785156 5.425781 2.96875 7.875 2.96875 C 10.382812 2.96875 12.410156 3.785156 13.953125 5.421875 C 15.492188 7.054688 16.265625 9.066406 16.265625 11.453125 C 16.265625 13.847656 15.492188 15.863281 13.953125 17.5 C 12.410156 19.132812 10.382812 19.953125 7.875 19.953125 C 5.425781 19.953125 3.382812 19.132812 1.75 17.5 C 0.113281 15.863281 -0.703125 13.847656 -0.703125 11.453125 Z M -0.703125 11.453125 "/></g></g></g><g fill="#000000" fill-opacity="1"><g transform="translate(107.45602, 191.588756)"><g><path d="M 30.703125 11.453125 C 30.703125 9.066406 31.519531 7.054688 33.15625 5.421875 C 34.789062 3.785156 36.832031 2.96875 39.28125 2.96875 C 41.789062 2.96875 43.816406 3.785156 45.359375 5.421875 C 46.898438 7.054688 47.671875 9.066406 47.671875 11.453125 C 47.671875 13.847656 46.898438 15.863281 45.359375 17.5 C 43.816406 19.132812 41.789062 19.953125 39.28125 19.953125 C 36.832031 19.953125 34.789062 19.132812 33.15625 17.5 C 31.519531 15.863281 30.703125 13.847656 30.703125 11.453125 Z M -0.703125 11.453125 C -0.703125 9.066406 0.113281 7.054688 1.75 5.421875 C 3.382812 3.785156 5.425781 2.96875 7.875 2.96875 C 10.382812 2.96875 12.410156 3.785156 13.953125 5.421875 C 15.492188 7.054688 16.265625 9.066406 16.265625 11.453125 C 16.265625 13.847656 15.492188 15.863281 13.953125 17.5 C 12.410156 19.132812 10.382812 19.953125 7.875 19.953125 C 5.425781 19.953125 3.382812 19.132812 1.75 17.5 C 0.113281 15.863281 -0.703125 13.847656 -0.703125 11.453125 Z M -0.703125 11.453125 "/></g></g></g></svg>