<svg xmlns="http://www.w3.org/2000/svg" xmlns:xlink="http://www.w3.org/1999/xlink" width="1920" zoomAndPan="magnify" viewBox="0 0 1440 809.999993" height="1080" preserveAspectRatio="xMidYMid meet" version="1.0"><defs><g/></defs><g fill="#000000" fill-opacity="1"><g transform="translate(29.325907, 185.183139)"><g><path d="M 64.09375 -61.890625 L 64.09375 0 L 49.765625 0 L 49.765625 -25.375 L 21.65625 -25.375 L 21.65625 0 L 7.34375 0 L 7.34375 -61.890625 L 21.65625 -61.890625 L 21.65625 -37.484375 L 49.765625 -37.484375 L 49.765625 -61.890625 Z M 64.09375 -61.890625 "/></g></g></g><g fill="#000000" fill-opacity="1"><g transform="translate(245.514968, 185.183139)"><g><path d="M 64.09375 -61.890625 L 64.09375 0 L 49.765625 0 L 49.765625 -25.375 L 21.65625 -25.375 L 21.65625 0 L 7.34375 0 L 7.34375 -61.890625 L 21.65625 -61.890625 L 21.65625 -37.484375 L 49.765625 -37.484375 L 49.765625 -61.890625 Z M 64.09375 -61.890625 "/></g></g></g><g fill="#9d33bb" fill-opacity="1"><g transform="translate(129.941205, 162.977418)"><g><path d="M 11.578125 0.703125 C 9.160156 0.703125 7.125 -0.117188 5.46875 -1.765625 C 3.820312 -3.421875 3 -5.484375 3 -7.953125 C 3 -10.492188 3.820312 -12.539062 5.46875 -14.09375 C 7.125 -15.65625 9.160156 -16.4375 11.578125 -16.4375 C 13.992188 -16.4375 16.023438 -15.65625 17.671875 -14.09375 C 19.328125 -12.539062 20.15625 -10.492188 20.15625 -7.953125 C 20.15625 -5.484375 19.328125 -3.421875 17.671875 -1.765625 C 16.023438 -0.117188 13.992188 0.703125 11.578125 0.703125 Z M 11.578125 0.703125 "/></g></g></g><g fill="#9d33bb" fill-opacity="1"><g transform="translate(193.178053, 162.977418)"><g><path d="M 11.578125 0.703125 C 9.160156 0.703125 7.125 -0.117188 5.46875 -1.765625 C 3.820312 -3.421875 3 -5.484375 3 -7.953125 C 3 -10.492188 3.820312 -12.539062 5.46875 -14.09375 C 7.125 -15.65625 9.160156 -16.4375 11.578125 -16.4375 C 13.992188 -16.4375 16.023438 -15.65625 17.671875 -14.09375 C 19.328125 -12.539062 20.15625 -10.492188 20.15625 -7.953125 C 20.15625 -5.484375 19.328125 -3.421875 17.671875 -1.765625 C 16.023438 -0.117188 13.992188 0.703125 11.578125 0.703125 Z M 11.578125 0.703125 "/></g></g></g><g fill="#000000" fill-opacity="1"><g transform="translate(358.120126, 185.183139)"><g><path d="M 6.1875 -43.765625 L 44.640625 -43.765625 L 44.640625 -38.546875 L 6.1875 -38.546875 Z M 6.1875 -23.34375 L 44.640625 -23.34375 L 44.640625 -18.125 L 6.1875 -18.125 Z M 6.1875 -23.34375 "/></g></g></g><g fill="#000000" fill-opacity="1"><g transform="translate(408.953192, 185.183139)"><g><path d="M 44.640625 -33.859375 L 44.640625 -28.03125 L 6.1875 -12.640625 L 6.1875 -18.125 L 38.71875 -30.9375 L 6.1875 -43.765625 L 6.1875 -49.328125 Z M 44.640625 -33.859375 "/></g></g></g><g fill="#000000" fill-opacity="1"><g transform="translate(500.701493, 185.183139)"><g><path d="M 64.09375 -61.890625 L 64.09375 0 L 49.765625 0 L 49.765625 -25.375 L 21.65625 -25.375 L 21.65625 0 L 7.34375 0 L 7.34375 -61.890625 L 21.65625 -61.890625 L 21.65625 -37.484375 L 49.765625 -37.484375 L 49.765625 -61.890625 Z M 64.09375 -61.890625 "/></g></g></g><g fill="#000000" fill-opacity="1"><g transform="translate(649.474126, 185.183139)"><g><path d="M 64.09375 -61.890625 L 64.09375 0 L 49.765625 0 L 49.765625 -25.375 L 21.65625 -25.375 L 21.65625 0 L 7.34375 0 L 7.34375 -61.890625 L 21.65625 -61.890625 L 21.65625 -37.484375 L 49.765625 -37.484375 L 49.765625 -61.890625 Z M 64.09375 -61.890625 "/></g></g></g><g fill="#9d33bb" fill-opacity="1"><g transform="translate(599.227008, 179.656721)"><g><path d="M 11.578125 -31.03125 C 9.160156 -31.03125 7.125 -31.851562 5.46875 -33.5 C 3.820312 -35.15625 3 -37.21875 3 -39.6875 C 3 -42.226562 3.820312 -44.273438 5.46875 -45.828125 C 7.125 -47.390625 9.160156 -48.171875 11.578125 -48.171875 C 13.992188 -48.171875 16.023438 -47.390625 17.671875 -45.828125 C 19.328125 -44.273438 20.15625 -42.226562 20.15625 -39.6875 C 20.15625 -37.21875 19.328125 -35.15625 17.671875 -33.5 C 16.023438 -31.851562 13.992188 -31.03125 11.578125 -31.03125 Z M 11.578125 0.703125 C 9.160156 0.703125 7.125 -0.117188 5.46875 -1.765625 C 3.820312 -3.421875 3 -5.484375 3 -7.953125 C 3 -10.492188 3.820312 -12.539062 5.46875 -14.09375 C 7.125 -15.65625 9.160156 -16.4375 11.578125 -16.4375 C 13.992188 -16.4375 16.023438 -15.65625 17.671875 -14.09375 C 19.328125 -12.539062 20.15625 -10.492188 20.15625 -7.953125 C 20.15625 -5.484375 19.328125 -3.421875 17.671875 -1.765625 C 16.023438 -0.117188 13.992188 0.703125 11.578125 0.703125 Z M 11.578125 0.703125 "/></g></g></g><g fill="#000000" fill-opacity="1"><g transform="translate(761.815696, 185.183139)"><g><path d="M 6.1875 -43.765625 L 44.640625 -43.765625 L 44.640625 -38.546875 L 6.1875 -38.546875 Z M 6.1875 -23.34375 L 44.640625 -23.34375 L 44.640625 -18.125 L 6.1875 -18.125 Z M 6.1875 -23.34375 "/></g></g></g><g fill="#000000" fill-opacity="1"><g transform="translate(812.648762, 185.183139)"><g><path d="M 44.640625 -33.859375 L 44.640625 -28.03125 L 6.1875 -12.640625 L 6.1875 -18.125 L 38.71875 -30.9375 L 6.1875 -43.765625 L 6.1875 -49.328125 Z M 44.640625 -33.859375 "/></g></g></g><g fill="#000000" fill-opacity="1"><g transform="translate(904.397073, 185.183139)"><g><path d="M 64.09375 -61.890625 L 64.09375 0 L 49.765625 0 L 49.765625 -25.375 L 21.65625 -25.375 L 21.65625 0 L 7.34375 0 L 7.34375 -61.890625 L 21.65625 -61.890625 L 21.65625 -37.484375 L 49.765625 -37.484375 L 49.765625 -61.890625 Z M 64.09375 -61.890625 "/></g></g></g><g fill="#000000" fill-opacity="1"><g transform="translate(1053.169633, 185.183139)"><g><path d="M 64.09375 -61.890625 L 64.09375 0 L 49.765625 0 L 49.765625 -25.375 L 21.65625 -25.375 L 21.65625 0 L 7.34375 0 L 7.34375 -61.890625 L 21.65625 -61.890625 L 21.65625 -37.484375 L 49.765625 -37.484375 L 49.765625 -61.890625 Z M 64.09375 -61.890625 "/></g></g></g><g fill="#9d33bb" fill-opacity="1"><g transform="translate(992.400892, 151.71298)"><g><path d="M 0 0 L 44.203125 0 L 44.203125 7.953125 L 0 7.953125 Z M 0 0 "/></g></g></g><g fill="#000000" fill-opacity="1"><g transform="translate(1165.511324, 179.656721)"><g><path d="M 6.1875 -43.765625 L 44.640625 -43.765625 L 44.640625 -38.546875 L 6.1875 -38.546875 Z M 6.1875 -23.34375 L 44.640625 -23.34375 L 44.640625 -18.125 L 6.1875 -18.125 Z M 6.1875 -23.34375 "/></g></g></g><g fill="#000000" fill-opacity="1"><g transform="translate(1216.34439, 179.656721)"><g><path d="M 44.640625 -33.859375 L 44.640625 -28.03125 L 6.1875 -12.640625 L 6.1875 -18.125 L 38.71875 -30.9375 L 6.1875 -43.765625 L 6.1875 -49.328125 Z M 44.640625 -33.859375 "/></g></g></g><g fill="#000000" fill-opacity="1"><g transform="translate(1308.092628, 179.656721)"><g><path d="M 64.09375 -61.890625 L 64.09375 0 L 49.765625 0 L 49.765625 -25.375 L 21.65625 -25.375 L 21.65625 0 L 7.34375 0 L 7.34375 -61.890625 L 21.65625 -61.890625 L 21.65625 -37.484375 L 49.765625 -37.484375 L 49.765625 -61.890625 Z M 64.09375 -61.890625 "/></g></g></g><g fill="#000000" fill-opacity="1"><g transform="translate(1379.538681, 187.477879)"><g><path d="M 33.125 -7.78125 L 33.125 0 L 1.9375 0 L 1.9375 -6.1875 L 17.859375 -21.21875 C 19.546875 -22.832031 20.679688 -24.21875 21.265625 -25.375 C 21.859375 -26.53125 22.15625 -27.679688 22.15625 -28.828125 C 22.15625 -30.472656 21.59375 -31.738281 20.46875 -32.625 C 19.351562 -33.507812 17.71875 -33.953125 15.5625 -33.953125 C 13.75 -33.953125 12.113281 -33.609375 10.65625 -32.921875 C 9.207031 -32.234375 7.992188 -31.203125 7.015625 -29.828125 L 0.0625 -34.296875 C 1.664062 -36.691406 3.882812 -38.566406 6.71875 -39.921875 C 9.550781 -41.285156 12.789062 -41.96875 16.4375 -41.96875 C 19.507812 -41.96875 22.191406 -41.460938 24.484375 -40.453125 C 26.785156 -39.453125 28.570312 -38.035156 29.84375 -36.203125 C 31.125 -34.378906 31.765625 -32.234375 31.765625 -29.765625 C 31.765625 -27.523438 31.289062 -25.421875 30.34375 -23.453125 C 29.40625 -21.492188 27.582031 -19.253906 24.875 -16.734375 L 15.375 -7.78125 Z M 33.125 -7.78125 "/></g></g></g></svg>