<svg xmlns="http://www.w3.org/2000/svg" xmlns:xlink="http://www.w3.org/1999/xlink" width="1920" zoomAndPan="magnify" viewBox="0 0 1440 809.999993" height="1080" preserveAspectRatio="xMidYMid meet" version="1.0"><defs><g/></defs><rect x="-144" width="1728" fill="#ffffff" y="-80.999999" height="971.999992" fill-opacity="1"/><rect x="-144" width="1728" fill="#ffffff" y="-80.999999" height="971.999992" fill-opacity="1"/><g fill="#000000" fill-opacity="1"><g transform="translate(12.24595, 162.610102)"><g><path d="M 33.296875 0.953125 C 27.609375 0.953125 22.46875 -0.28125 17.875 -2.75 C 13.289062 -5.21875 9.679688 -8.640625 7.046875 -13.015625 C 4.421875 -17.398438 3.109375 -22.351562 3.109375 -27.875 C 3.109375 -33.394531 4.421875 -38.347656 7.046875 -42.734375 C 9.679688 -47.117188 13.289062 -50.546875 17.875 -53.015625 C 22.46875 -55.484375 27.632812 -56.71875 33.375 -56.71875 C 38.207031 -56.71875 42.570312 -55.867188 46.46875 -54.171875 C 50.375 -52.472656 53.65625 -50.03125 56.3125 -46.84375 L 48.03125 -39.1875 C 44.257812 -43.539062 39.585938 -45.71875 34.015625 -45.71875 C 30.554688 -45.71875 27.472656 -44.960938 24.765625 -43.453125 C 22.054688 -41.941406 19.945312 -39.832031 18.4375 -37.125 C 16.925781 -34.414062 16.171875 -31.332031 16.171875 -27.875 C 16.171875 -24.425781 16.925781 -21.347656 18.4375 -18.640625 C 19.945312 -15.929688 22.054688 -13.816406 24.765625 -12.296875 C 27.472656 -10.785156 30.554688 -10.03125 34.015625 -10.03125 C 39.585938 -10.03125 44.257812 -12.234375 48.03125 -16.640625 L 56.3125 -9 C 53.65625 -5.757812 50.363281 -3.289062 46.4375 -1.59375 C 42.507812 0.101562 38.128906 0.953125 33.296875 0.953125 Z M 33.296875 0.953125 "/></g></g></g><g fill="#000000" fill-opacity="1"><g transform="translate(70.631909, 162.610102)"><g><path d="M 57.75 -55.765625 L 57.75 0 L 44.84375 0 L 44.84375 -22.859375 L 19.515625 -22.859375 L 19.515625 0 L 6.609375 0 L 6.609375 -55.765625 L 19.515625 -55.765625 L 19.515625 -33.78125 L 44.84375 -33.78125 L 44.84375 -55.765625 Z M 57.75 -55.765625 "/></g></g></g><g fill="#000000" fill-opacity="1"><g transform="translate(151.828827, 185.007635)"><g><path d="M 23.328125 -26.453125 C 27.234375 -25.816406 30.226562 -24.359375 32.3125 -22.078125 C 34.394531 -19.804688 35.4375 -16.992188 35.4375 -13.640625 C 35.4375 -11.046875 34.753906 -8.65625 33.390625 -6.46875 C 32.035156 -4.28125 29.96875 -2.523438 27.1875 -1.203125 C 24.40625 0.109375 20.992188 0.765625 16.953125 0.765625 C 13.804688 0.765625 10.710938 0.351562 7.671875 -0.46875 C 4.640625 -1.300781 2.0625 -2.484375 -0.0625 -4.015625 L 3.953125 -11.921875 C 5.648438 -10.640625 7.613281 -9.648438 9.84375 -8.953125 C 12.070312 -8.253906 14.359375 -7.90625 16.703125 -7.90625 C 19.296875 -7.90625 21.332031 -8.40625 22.8125 -9.40625 C 24.300781 -10.40625 25.046875 -11.816406 25.046875 -13.640625 C 25.046875 -17.296875 22.265625 -19.125 16.703125 -19.125 L 11.984375 -19.125 L 11.984375 -25.9375 L 21.15625 -36.328125 L 2.171875 -36.328125 L 2.171875 -44.609375 L 33.390625 -44.609375 L 33.390625 -37.921875 Z M 23.328125 -26.453125 "/></g></g></g><g fill="#000000" fill-opacity="1"><g transform="translate(220.297817, 127.449072)"><g><path d="M 0 0 L 39.828125 0 L 39.828125 7.171875 L 0 7.171875 Z M 0 0 "/></g></g></g><g fill="#000000" fill-opacity="1"><g transform="translate(294.667054, 162.610102)"><g><path d="M 33.296875 0.953125 C 27.609375 0.953125 22.46875 -0.28125 17.875 -2.75 C 13.289062 -5.21875 9.679688 -8.640625 7.046875 -13.015625 C 4.421875 -17.398438 3.109375 -22.351562 3.109375 -27.875 C 3.109375 -33.394531 4.421875 -38.347656 7.046875 -42.734375 C 9.679688 -47.117188 13.289062 -50.546875 17.875 -53.015625 C 22.46875 -55.484375 27.632812 -56.71875 33.375 -56.71875 C 38.207031 -56.71875 42.570312 -55.867188 46.46875 -54.171875 C 50.375 -52.472656 53.65625 -50.03125 56.3125 -46.84375 L 48.03125 -39.1875 C 44.257812 -43.539062 39.585938 -45.71875 34.015625 -45.71875 C 30.554688 -45.71875 27.472656 -44.960938 24.765625 -43.453125 C 22.054688 -41.941406 19.945312 -39.832031 18.4375 -37.125 C 16.925781 -34.414062 16.171875 -31.332031 16.171875 -27.875 C 16.171875 -24.425781 16.925781 -21.347656 18.4375 -18.640625 C 19.945312 -15.929688 22.054688 -13.816406 24.765625 -12.296875 C 27.472656 -10.785156 30.554688 -10.03125 34.015625 -10.03125 C 39.585938 -10.03125 44.257812 -12.234375 48.03125 -16.640625 L 56.3125 -9 C 53.65625 -5.757812 50.363281 -3.289062 46.4375 -1.59375 C 42.507812 0.101562 38.128906 0.953125 33.296875 0.953125 Z M 33.296875 0.953125 "/></g></g></g><g fill="#000000" fill-opacity="1"><g transform="translate(353.053013, 162.610102)"><g><path d="M 57.75 -55.765625 L 57.75 0 L 44.84375 0 L 44.84375 -22.859375 L 19.515625 -22.859375 L 19.515625 0 L 6.609375 0 L 6.609375 -55.765625 L 19.515625 -55.765625 L 19.515625 -33.78125 L 44.84375 -33.78125 L 44.84375 -55.765625 Z M 57.75 -55.765625 "/></g></g></g><g fill="#000000" fill-opacity="1"><g transform="translate(1259.812327, 162.610102)"><g><path d="M 33.296875 0.953125 C 27.609375 0.953125 22.46875 -0.28125 17.875 -2.75 C 13.289062 -5.21875 9.679688 -8.640625 7.046875 -13.015625 C 4.421875 -17.398438 3.109375 -22.351562 3.109375 -27.875 C 3.109375 -33.394531 4.421875 -38.347656 7.046875 -42.734375 C 9.679688 -47.117188 13.289062 -50.546875 17.875 -53.015625 C 22.46875 -55.484375 27.632812 -56.71875 33.375 -56.71875 C 38.207031 -56.71875 42.570312 -55.867188 46.46875 -54.171875 C 50.375 -52.472656 53.65625 -50.03125 56.3125 -46.84375 L 48.03125 -39.1875 C 44.257812 -43.539062 39.585938 -45.71875 34.015625 -45.71875 C 30.554688 -45.71875 27.472656 -44.960938 24.765625 -43.453125 C 22.054688 -41.941406 19.945312 -39.832031 18.4375 -37.125 C 16.925781 -34.414062 16.171875 -31.332031 16.171875 -27.875 C 16.171875 -24.425781 16.925781 -21.347656 18.4375 -18.640625 C 19.945312 -15.929688 22.054688 -13.816406 24.765625 -12.296875 C 27.472656 -10.785156 30.554688 -10.03125 34.015625 -10.03125 C 39.585938 -10.03125 44.257812 -12.234375 48.03125 -16.640625 L 56.3125 -9 C 53.65625 -5.757812 50.363281 -3.289062 46.4375 -1.59375 C 42.507812 0.101562 38.128906 0.953125 33.296875 0.953125 Z M 33.296875 0.953125 "/></g></g></g><g fill="#000000" fill-opacity="1"><g transform="translate(1318.198287, 162.610102)"><g><path d="M 57.75 -55.765625 L 57.75 0 L 44.84375 0 L 44.84375 -22.859375 L 19.515625 -22.859375 L 19.515625 0 L 6.609375 0 L 6.609375 -55.765625 L 19.515625 -55.765625 L 19.515625 -33.78125 L 44.84375 -33.78125 L 44.84375 -55.765625 Z M 57.75 -55.765625 "/></g></g></g><g fill="#000000" fill-opacity="1"><g transform="translate(1399.395176, 185.007635)"><g><path d="M 23.328125 -26.453125 C 27.234375 -25.816406 30.226562 -24.359375 32.3125 -22.078125 C 34.394531 -19.804688 35.4375 -16.992188 35.4375 -13.640625 C 35.4375 -11.046875 34.753906 -8.65625 33.390625 -6.46875 C 32.035156 -4.28125 29.96875 -2.523438 27.1875 -1.203125 C 24.40625 0.109375 20.992188 0.765625 16.953125 0.765625 C 13.804688 0.765625 10.710938 0.351562 7.671875 -0.46875 C 4.640625 -1.300781 2.0625 -2.484375 -0.0625 -4.015625 L 3.953125 -11.921875 C 5.648438 -10.640625 7.613281 -9.648438 9.84375 -8.953125 C 12.070312 -8.253906 14.359375 -7.90625 16.703125 -7.90625 C 19.296875 -7.90625 21.332031 -8.40625 22.8125 -9.40625 C 24.300781 -10.40625 25.046875 -11.816406 25.046875 -13.640625 C 25.046875 -17.296875 22.265625 -19.125 16.703125 -19.125 L 11.984375 -19.125 L 11.984375 -25.9375 L 21.15625 -36.328125 L 2.171875 -36.328125 L 2.171875 -44.609375 L 33.390625 -44.609375 L 33.390625 -37.921875 Z M 23.328125 -26.453125 "/></g></g></g><g fill="#000000" fill-opacity="1"><g transform="translate(1184.127787, 128.345362)"><g><path d="M 0 0 L 39.828125 0 L 39.828125 7.171875 L 0 7.171875 Z M 0 0 "/></g></g></g><g fill="#000000" fill-opacity="1"><g transform="translate(307.293216, 345.492863)"><g><path d="M 33.296875 0.953125 C 27.609375 0.953125 22.46875 -0.28125 17.875 -2.75 C 13.289062 -5.21875 9.679688 -8.640625 7.046875 -13.015625 C 4.421875 -17.398438 3.109375 -22.351562 3.109375 -27.875 C 3.109375 -33.394531 4.421875 -38.347656 7.046875 -42.734375 C 9.679688 -47.117188 13.289062 -50.546875 17.875 -53.015625 C 22.46875 -55.484375 27.632812 -56.71875 33.375 -56.71875 C 38.207031 -56.71875 42.570312 -55.867188 46.46875 -54.171875 C 50.375 -52.472656 53.65625 -50.03125 56.3125 -46.84375 L 48.03125 -39.1875 C 44.257812 -43.539062 39.585938 -45.71875 34.015625 -45.71875 C 30.554688 -45.71875 27.472656 -44.960938 24.765625 -43.453125 C 22.054688 -41.941406 19.945312 -39.832031 18.4375 -37.125 C 16.925781 -34.414062 16.171875 -31.332031 16.171875 -27.875 C 16.171875 -24.425781 16.925781 -21.347656 18.4375 -18.640625 C 19.945312 -15.929688 22.054688 -13.816406 24.765625 -12.296875 C 27.472656 -10.785156 30.554688 -10.03125 34.015625 -10.03125 C 39.585938 -10.03125 44.257812 -12.234375 48.03125 -16.640625 L 56.3125 -9 C 53.65625 -5.757812 50.363281 -3.289062 46.4375 -1.59375 C 42.507812 0.101562 38.128906 0.953125 33.296875 0.953125 Z M 33.296875 0.953125 "/></g></g></g><g fill="#000000" fill-opacity="1"><g transform="translate(365.679175, 345.492863)"><g><path d="M 57.75 -55.765625 L 57.75 0 L 44.84375 0 L 44.84375 -22.859375 L 19.515625 -22.859375 L 19.515625 0 L 6.609375 0 L 6.609375 -55.765625 L 19.515625 -55.765625 L 19.515625 -33.78125 L 44.84375 -33.78125 L 44.84375 -55.765625 Z M 57.75 -55.765625 "/></g></g></g><g fill="#000000" fill-opacity="1"><g transform="translate(446.87612, 367.890379)"><g><path d="M 35.8125 -8.40625 L 35.8125 0 L 2.109375 0 L 2.109375 -6.6875 L 19.3125 -22.9375 C 21.132812 -24.6875 22.363281 -26.1875 23 -27.4375 C 23.644531 -28.6875 23.96875 -29.929688 23.96875 -31.171875 C 23.96875 -32.953125 23.359375 -34.320312 22.140625 -35.28125 C 20.929688 -36.238281 19.160156 -36.71875 16.828125 -36.71875 C 14.867188 -36.71875 13.101562 -36.34375 11.53125 -35.59375 C 9.957031 -34.851562 8.640625 -33.738281 7.578125 -32.25 L 0.0625 -37.09375 C 1.800781 -39.6875 4.203125 -41.710938 7.265625 -43.171875 C 10.328125 -44.640625 13.832031 -45.375 17.78125 -45.375 C 21.09375 -45.375 23.988281 -44.832031 26.46875 -43.75 C 28.957031 -42.664062 30.894531 -41.132812 32.28125 -39.15625 C 33.664062 -37.1875 34.359375 -34.863281 34.359375 -32.1875 C 34.359375 -29.757812 33.847656 -27.484375 32.828125 -25.359375 C 31.804688 -23.234375 29.828125 -20.8125 26.890625 -18.09375 L 16.640625 -8.40625 Z M 35.8125 -8.40625 "/></g></g></g><g fill="#000000" fill-opacity="1"><g transform="translate(321.877268, 249.093686)"><g><path d="M 0 0 L 0 -39.828125 L 7.171875 -39.828125 L 7.171875 0 Z M 0 0 "/></g></g></g><g fill="#000000" fill-opacity="1"><g transform="translate(441.811928, 127.449072)"><g><path d="M 0 0 L 39.828125 0 L 39.828125 7.171875 L 0 7.171875 Z M 0 0 "/></g></g></g><g fill="#000000" fill-opacity="1"><g transform="translate(516.181149, 162.610102)"><g><path d="M 33.296875 0.953125 C 27.609375 0.953125 22.46875 -0.28125 17.875 -2.75 C 13.289062 -5.21875 9.679688 -8.640625 7.046875 -13.015625 C 4.421875 -17.398438 3.109375 -22.351562 3.109375 -27.875 C 3.109375 -33.394531 4.421875 -38.347656 7.046875 -42.734375 C 9.679688 -47.117188 13.289062 -50.546875 17.875 -53.015625 C 22.46875 -55.484375 27.632812 -56.71875 33.375 -56.71875 C 38.207031 -56.71875 42.570312 -55.867188 46.46875 -54.171875 C 50.375 -52.472656 53.65625 -50.03125 56.3125 -46.84375 L 48.03125 -39.1875 C 44.257812 -43.539062 39.585938 -45.71875 34.015625 -45.71875 C 30.554688 -45.71875 27.472656 -44.960938 24.765625 -43.453125 C 22.054688 -41.941406 19.945312 -39.832031 18.4375 -37.125 C 16.925781 -34.414062 16.171875 -31.332031 16.171875 -27.875 C 16.171875 -24.425781 16.925781 -21.347656 18.4375 -18.640625 C 19.945312 -15.929688 22.054688 -13.816406 24.765625 -12.296875 C 27.472656 -10.785156 30.554688 -10.03125 34.015625 -10.03125 C 39.585938 -10.03125 44.257812 -12.234375 48.03125 -16.640625 L 56.3125 -9 C 53.65625 -5.757812 50.363281 -3.289062 46.4375 -1.59375 C 42.507812 0.101562 38.128906 0.953125 33.296875 0.953125 Z M 33.296875 0.953125 "/></g></g></g><g fill="#000000" fill-opacity="1"><g transform="translate(574.567108, 162.610102)"><g><path d="M 57.75 -55.765625 L 57.75 0 L 44.84375 0 L 44.84375 -22.859375 L 19.515625 -22.859375 L 19.515625 0 L 6.609375 0 L 6.609375 -55.765625 L 19.515625 -55.765625 L 19.515625 -33.78125 L 44.84375 -33.78125 L 44.84375 -55.765625 Z M 57.75 -55.765625 "/></g></g></g><g fill="#000000" fill-opacity="1"><g transform="translate(664.313181, 127.449072)"><g><path d="M 0 0 L 39.828125 0 L 39.828125 7.171875 L 0 7.171875 Z M 0 0 "/></g></g></g><g fill="#000000" fill-opacity="1"><g transform="translate(738.682425, 162.610102)"><g><path d="M 33.296875 0.953125 C 27.609375 0.953125 22.46875 -0.28125 17.875 -2.75 C 13.289062 -5.21875 9.679688 -8.640625 7.046875 -13.015625 C 4.421875 -17.398438 3.109375 -22.351562 3.109375 -27.875 C 3.109375 -33.394531 4.421875 -38.347656 7.046875 -42.734375 C 9.679688 -47.117188 13.289062 -50.546875 17.875 -53.015625 C 22.46875 -55.484375 27.632812 -56.71875 33.375 -56.71875 C 38.207031 -56.71875 42.570312 -55.867188 46.46875 -54.171875 C 50.375 -52.472656 53.65625 -50.03125 56.3125 -46.84375 L 48.03125 -39.1875 C 44.257812 -43.539062 39.585938 -45.71875 34.015625 -45.71875 C 30.554688 -45.71875 27.472656 -44.960938 24.765625 -43.453125 C 22.054688 -41.941406 19.945312 -39.832031 18.4375 -37.125 C 16.925781 -34.414062 16.171875 -31.332031 16.171875 -27.875 C 16.171875 -24.425781 16.925781 -21.347656 18.4375 -18.640625 C 19.945312 -15.929688 22.054688 -13.816406 24.765625 -12.296875 C 27.472656 -10.785156 30.554688 -10.03125 34.015625 -10.03125 C 39.585938 -10.03125 44.257812 -12.234375 48.03125 -16.640625 L 56.3125 -9 C 53.65625 -5.757812 50.363281 -3.289062 46.4375 -1.59375 C 42.507812 0.101562 38.128906 0.953125 33.296875 0.953125 Z M 33.296875 0.953125 "/></g></g></g><g fill="#000000" fill-opacity="1"><g transform="translate(797.068385, 162.610102)"><g><path d="M 57.75 -55.765625 L 57.75 0 L 44.84375 0 L 44.84375 -22.859375 L 19.515625 -22.859375 L 19.515625 0 L 6.609375 0 L 6.609375 -55.765625 L 19.515625 -55.765625 L 19.515625 -33.78125 L 44.84375 -33.78125 L 44.84375 -55.765625 Z M 57.75 -55.765625 "/></g></g></g><g fill="#000000" fill-opacity="1"><g transform="translate(969.523558, 161.265663)"><g><path d="M 33.296875 0.953125 C 27.609375 0.953125 22.46875 -0.28125 17.875 -2.75 C 13.289062 -5.21875 9.679688 -8.640625 7.046875 -13.015625 C 4.421875 -17.398438 3.109375 -22.351562 3.109375 -27.875 C 3.109375 -33.394531 4.421875 -38.347656 7.046875 -42.734375 C 9.679688 -47.117188 13.289062 -50.546875 17.875 -53.015625 C 22.46875 -55.484375 27.632812 -56.71875 33.375 -56.71875 C 38.207031 -56.71875 42.570312 -55.867188 46.46875 -54.171875 C 50.375 -52.472656 53.65625 -50.03125 56.3125 -46.84375 L 48.03125 -39.1875 C 44.257812 -43.539062 39.585938 -45.71875 34.015625 -45.71875 C 30.554688 -45.71875 27.472656 -44.960938 24.765625 -43.453125 C 22.054688 -41.941406 19.945312 -39.832031 18.4375 -37.125 C 16.925781 -34.414062 16.171875 -31.332031 16.171875 -27.875 C 16.171875 -24.425781 16.925781 -21.347656 18.4375 -18.640625 C 19.945312 -15.929688 22.054688 -13.816406 24.765625 -12.296875 C 27.472656 -10.785156 30.554688 -10.03125 34.015625 -10.03125 C 39.585938 -10.03125 44.257812 -12.234375 48.03125 -16.640625 L 56.3125 -9 C 53.65625 -5.757812 50.363281 -3.289062 46.4375 -1.59375 C 42.507812 0.101562 38.128906 0.953125 33.296875 0.953125 Z M 33.296875 0.953125 "/></g></g></g><g fill="#000000" fill-opacity="1"><g transform="translate(1027.909517, 161.265663)"><g><path d="M 57.75 -55.765625 L 57.75 0 L 44.84375 0 L 44.84375 -22.859375 L 19.515625 -22.859375 L 19.515625 0 L 6.609375 0 L 6.609375 -55.765625 L 19.515625 -55.765625 L 19.515625 -33.78125 L 44.84375 -33.78125 L 44.84375 -55.765625 Z M 57.75 -55.765625 "/></g></g></g><g fill="#000000" fill-opacity="1"><g transform="translate(1109.106502, 183.663186)"><g><path d="M 35.8125 -8.40625 L 35.8125 0 L 2.109375 0 L 2.109375 -6.6875 L 19.3125 -22.9375 C 21.132812 -24.6875 22.363281 -26.1875 23 -27.4375 C 23.644531 -28.6875 23.96875 -29.929688 23.96875 -31.171875 C 23.96875 -32.953125 23.359375 -34.320312 22.140625 -35.28125 C 20.929688 -36.238281 19.160156 -36.71875 16.828125 -36.71875 C 14.867188 -36.71875 13.101562 -36.34375 11.53125 -35.59375 C 9.957031 -34.851562 8.640625 -33.738281 7.578125 -32.25 L 0.0625 -37.09375 C 1.800781 -39.6875 4.203125 -41.710938 7.265625 -43.171875 C 10.328125 -44.640625 13.832031 -45.375 17.78125 -45.375 C 21.09375 -45.375 23.988281 -44.832031 26.46875 -43.75 C 28.957031 -42.664062 30.894531 -41.132812 32.28125 -39.15625 C 33.664062 -37.1875 34.359375 -34.863281 34.359375 -32.1875 C 34.359375 -29.757812 33.847656 -27.484375 32.828125 -25.359375 C 31.804688 -23.234375 29.828125 -20.8125 26.890625 -18.09375 L 16.640625 -8.40625 Z M 35.8125 -8.40625 "/></g></g></g><g fill="#000000" fill-opacity="1"><g transform="translate(893.839138, 127.000923)"><g><path d="M 0 0 L 39.828125 0 L 39.828125 7.171875 L 0 7.171875 Z M 0 0 "/></g></g></g><g fill="#000000" fill-opacity="1"><g transform="translate(310.637512, 521.952453)"><g><path d="M 33.296875 0.953125 C 27.609375 0.953125 22.46875 -0.28125 17.875 -2.75 C 13.289062 -5.21875 9.679688 -8.640625 7.046875 -13.015625 C 4.421875 -17.398438 3.109375 -22.351562 3.109375 -27.875 C 3.109375 -33.394531 4.421875 -38.347656 7.046875 -42.734375 C 9.679688 -47.117188 13.289062 -50.546875 17.875 -53.015625 C 22.46875 -55.484375 27.632812 -56.71875 33.375 -56.71875 C 38.207031 -56.71875 42.570312 -55.867188 46.46875 -54.171875 C 50.375 -52.472656 53.65625 -50.03125 56.3125 -46.84375 L 48.03125 -39.1875 C 44.257812 -43.539062 39.585938 -45.71875 34.015625 -45.71875 C 30.554688 -45.71875 27.472656 -44.960938 24.765625 -43.453125 C 22.054688 -41.941406 19.945312 -39.832031 18.4375 -37.125 C 16.925781 -34.414062 16.171875 -31.332031 16.171875 -27.875 C 16.171875 -24.425781 16.925781 -21.347656 18.4375 -18.640625 C 19.945312 -15.929688 22.054688 -13.816406 24.765625 -12.296875 C 27.472656 -10.785156 30.554688 -10.03125 34.015625 -10.03125 C 39.585938 -10.03125 44.257812 -12.234375 48.03125 -16.640625 L 56.3125 -9 C 53.65625 -5.757812 50.363281 -3.289062 46.4375 -1.59375 C 42.507812 0.101562 38.128906 0.953125 33.296875 0.953125 Z M 33.296875 0.953125 "/></g></g></g><g fill="#000000" fill-opacity="1"><g transform="translate(369.023472, 521.952453)"><g><path d="M 57.75 -55.765625 L 57.75 0 L 44.84375 0 L 44.84375 -22.859375 L 19.515625 -22.859375 L 19.515625 0 L 6.609375 0 L 6.609375 -55.765625 L 19.515625 -55.765625 L 19.515625 -33.78125 L 44.84375 -33.78125 L 44.84375 -55.765625 Z M 57.75 -55.765625 "/></g></g></g><g fill="#000000" fill-opacity="1"><g transform="translate(450.220376, 544.349983)"><g><path d="M 23.328125 -26.453125 C 27.234375 -25.816406 30.226562 -24.359375 32.3125 -22.078125 C 34.394531 -19.804688 35.4375 -16.992188 35.4375 -13.640625 C 35.4375 -11.046875 34.753906 -8.65625 33.390625 -6.46875 C 32.035156 -4.28125 29.96875 -2.523438 27.1875 -1.203125 C 24.40625 0.109375 20.992188 0.765625 16.953125 0.765625 C 13.804688 0.765625 10.710938 0.351562 7.671875 -0.46875 C 4.640625 -1.300781 2.0625 -2.484375 -0.0625 -4.015625 L 3.953125 -11.921875 C 5.648438 -10.640625 7.613281 -9.648438 9.84375 -8.953125 C 12.070312 -8.253906 14.359375 -7.90625 16.703125 -7.90625 C 19.296875 -7.90625 21.332031 -8.40625 22.8125 -9.40625 C 24.300781 -10.40625 25.046875 -11.816406 25.046875 -13.640625 C 25.046875 -17.296875 22.265625 -19.125 16.703125 -19.125 L 11.984375 -19.125 L 11.984375 -25.9375 L 21.15625 -36.328125 L 2.171875 -36.328125 L 2.171875 -44.609375 L 33.390625 -44.609375 L 33.390625 -37.921875 Z M 23.328125 -26.453125 "/></g></g></g><g fill="#000000" fill-opacity="1"><g transform="translate(325.22155, 425.553382)"><g><path d="M 0 0 L 0 -39.828125 L 7.171875 -39.828125 L 7.171875 0 Z M 0 0 "/></g></g></g><g fill="#000000" fill-opacity="1"><g transform="translate(556.889514, 343.011709)"><g><path d="M 33.296875 0.953125 C 27.609375 0.953125 22.46875 -0.28125 17.875 -2.75 C 13.289062 -5.21875 9.679688 -8.640625 7.046875 -13.015625 C 4.421875 -17.398438 3.109375 -22.351562 3.109375 -27.875 C 3.109375 -33.394531 4.421875 -38.347656 7.046875 -42.734375 C 9.679688 -47.117188 13.289062 -50.546875 17.875 -53.015625 C 22.46875 -55.484375 27.632812 -56.71875 33.375 -56.71875 C 38.207031 -56.71875 42.570312 -55.867188 46.46875 -54.171875 C 50.375 -52.472656 53.65625 -50.03125 56.3125 -46.84375 L 48.03125 -39.1875 C 44.257812 -43.539062 39.585938 -45.71875 34.015625 -45.71875 C 30.554688 -45.71875 27.472656 -44.960938 24.765625 -43.453125 C 22.054688 -41.941406 19.945312 -39.832031 18.4375 -37.125 C 16.925781 -34.414062 16.171875 -31.332031 16.171875 -27.875 C 16.171875 -24.425781 16.925781 -21.347656 18.4375 -18.640625 C 19.945312 -15.929688 22.054688 -13.816406 24.765625 -12.296875 C 27.472656 -10.785156 30.554688 -10.03125 34.015625 -10.03125 C 39.585938 -10.03125 44.257812 -12.234375 48.03125 -16.640625 L 56.3125 -9 C 53.65625 -5.757812 50.363281 -3.289062 46.4375 -1.59375 C 42.507812 0.101562 38.128906 0.953125 33.296875 0.953125 Z M 33.296875 0.953125 "/></g></g></g><g fill="#000000" fill-opacity="1"><g transform="translate(615.275474, 343.011709)"><g><path d="M 57.75 -55.765625 L 57.75 0 L 44.84375 0 L 44.84375 -22.859375 L 19.515625 -22.859375 L 19.515625 0 L 6.609375 0 L 6.609375 -55.765625 L 19.515625 -55.765625 L 19.515625 -33.78125 L 44.84375 -33.78125 L 44.84375 -55.765625 Z M 57.75 -55.765625 "/></g></g></g><g fill="#000000" fill-opacity="1"><g transform="translate(696.472363, 365.409227)"><g><path d="M 23.328125 -26.453125 C 27.234375 -25.816406 30.226562 -24.359375 32.3125 -22.078125 C 34.394531 -19.804688 35.4375 -16.992188 35.4375 -13.640625 C 35.4375 -11.046875 34.753906 -8.65625 33.390625 -6.46875 C 32.035156 -4.28125 29.96875 -2.523438 27.1875 -1.203125 C 24.40625 0.109375 20.992188 0.765625 16.953125 0.765625 C 13.804688 0.765625 10.710938 0.351562 7.671875 -0.46875 C 4.640625 -1.300781 2.0625 -2.484375 -0.0625 -4.015625 L 3.953125 -11.921875 C 5.648438 -10.640625 7.613281 -9.648438 9.84375 -8.953125 C 12.070312 -8.253906 14.359375 -7.90625 16.703125 -7.90625 C 19.296875 -7.90625 21.332031 -8.40625 22.8125 -9.40625 C 24.300781 -10.40625 25.046875 -11.816406 25.046875 -13.640625 C 25.046875 -17.296875 22.265625 -19.125 16.703125 -19.125 L 11.984375 -19.125 L 11.984375 -25.9375 L 21.15625 -36.328125 L 2.171875 -36.328125 L 2.171875 -44.609375 L 33.390625 -44.609375 L 33.390625 -37.921875 Z M 23.328125 -26.453125 "/></g></g></g><g fill="#000000" fill-opacity="1"><g transform="translate(571.473557, 246.612562)"><g><path d="M 0 0 L 0 -39.828125 L 7.171875 -39.828125 L 7.171875 0 Z M 0 0 "/></g></g></g><g fill="#000000" fill-opacity="1"><g transform="translate(812.350686, 341.550909)"><g><path d="M 33.296875 0.953125 C 27.609375 0.953125 22.46875 -0.28125 17.875 -2.75 C 13.289062 -5.21875 9.679688 -8.640625 7.046875 -13.015625 C 4.421875 -17.398438 3.109375 -22.351562 3.109375 -27.875 C 3.109375 -33.394531 4.421875 -38.347656 7.046875 -42.734375 C 9.679688 -47.117188 13.289062 -50.546875 17.875 -53.015625 C 22.46875 -55.484375 27.632812 -56.71875 33.375 -56.71875 C 38.207031 -56.71875 42.570312 -55.867188 46.46875 -54.171875 C 50.375 -52.472656 53.65625 -50.03125 56.3125 -46.84375 L 48.03125 -39.1875 C 44.257812 -43.539062 39.585938 -45.71875 34.015625 -45.71875 C 30.554688 -45.71875 27.472656 -44.960938 24.765625 -43.453125 C 22.054688 -41.941406 19.945312 -39.832031 18.4375 -37.125 C 16.925781 -34.414062 16.171875 -31.332031 16.171875 -27.875 C 16.171875 -24.425781 16.925781 -21.347656 18.4375 -18.640625 C 19.945312 -15.929688 22.054688 -13.816406 24.765625 -12.296875 C 27.472656 -10.785156 30.554688 -10.03125 34.015625 -10.03125 C 39.585938 -10.03125 44.257812 -12.234375 48.03125 -16.640625 L 56.3125 -9 C 53.65625 -5.757812 50.363281 -3.289062 46.4375 -1.59375 C 42.507812 0.101562 38.128906 0.953125 33.296875 0.953125 Z M 33.296875 0.953125 "/></g></g></g><g fill="#000000" fill-opacity="1"><g transform="translate(870.736645, 341.550909)"><g><path d="M 57.75 -55.765625 L 57.75 0 L 44.84375 0 L 44.84375 -22.859375 L 19.515625 -22.859375 L 19.515625 0 L 6.609375 0 L 6.609375 -55.765625 L 19.515625 -55.765625 L 19.515625 -33.78125 L 44.84375 -33.78125 L 44.84375 -55.765625 Z M 57.75 -55.765625 "/></g></g></g><g fill="#000000" fill-opacity="1"><g transform="translate(826.934752, 245.151792)"><g><path d="M 0 0 L 0 -39.828125 L 7.171875 -39.828125 L 7.171875 0 Z M 0 0 "/></g></g></g><g fill="#000000" fill-opacity="1"><g transform="translate(815.695037, 521.952453)"><g><path d="M 33.296875 0.953125 C 27.609375 0.953125 22.46875 -0.28125 17.875 -2.75 C 13.289062 -5.21875 9.679688 -8.640625 7.046875 -13.015625 C 4.421875 -17.398438 3.109375 -22.351562 3.109375 -27.875 C 3.109375 -33.394531 4.421875 -38.347656 7.046875 -42.734375 C 9.679688 -47.117188 13.289062 -50.546875 17.875 -53.015625 C 22.46875 -55.484375 27.632812 -56.71875 33.375 -56.71875 C 38.207031 -56.71875 42.570312 -55.867188 46.46875 -54.171875 C 50.375 -52.472656 53.65625 -50.03125 56.3125 -46.84375 L 48.03125 -39.1875 C 44.257812 -43.539062 39.585938 -45.71875 34.015625 -45.71875 C 30.554688 -45.71875 27.472656 -44.960938 24.765625 -43.453125 C 22.054688 -41.941406 19.945312 -39.832031 18.4375 -37.125 C 16.925781 -34.414062 16.171875 -31.332031 16.171875 -27.875 C 16.171875 -24.425781 16.925781 -21.347656 18.4375 -18.640625 C 19.945312 -15.929688 22.054688 -13.816406 24.765625 -12.296875 C 27.472656 -10.785156 30.554688 -10.03125 34.015625 -10.03125 C 39.585938 -10.03125 44.257812 -12.234375 48.03125 -16.640625 L 56.3125 -9 C 53.65625 -5.757812 50.363281 -3.289062 46.4375 -1.59375 C 42.507812 0.101562 38.128906 0.953125 33.296875 0.953125 Z M 33.296875 0.953125 "/></g></g></g><g fill="#000000" fill-opacity="1"><g transform="translate(874.080997, 521.952453)"><g><path d="M 57.75 -55.765625 L 57.75 0 L 44.84375 0 L 44.84375 -22.859375 L 19.515625 -22.859375 L 19.515625 0 L 6.609375 0 L 6.609375 -55.765625 L 19.515625 -55.765625 L 19.515625 -33.78125 L 44.84375 -33.78125 L 44.84375 -55.765625 Z M 57.75 -55.765625 "/></g></g></g><g fill="#000000" fill-opacity="1"><g transform="translate(955.277838, 544.349983)"><g><path d="M 23.328125 -26.453125 C 27.234375 -25.816406 30.226562 -24.359375 32.3125 -22.078125 C 34.394531 -19.804688 35.4375 -16.992188 35.4375 -13.640625 C 35.4375 -11.046875 34.753906 -8.65625 33.390625 -6.46875 C 32.035156 -4.28125 29.96875 -2.523438 27.1875 -1.203125 C 24.40625 0.109375 20.992188 0.765625 16.953125 0.765625 C 13.804688 0.765625 10.710938 0.351562 7.671875 -0.46875 C 4.640625 -1.300781 2.0625 -2.484375 -0.0625 -4.015625 L 3.953125 -11.921875 C 5.648438 -10.640625 7.613281 -9.648438 9.84375 -8.953125 C 12.070312 -8.253906 14.359375 -7.90625 16.703125 -7.90625 C 19.296875 -7.90625 21.332031 -8.40625 22.8125 -9.40625 C 24.300781 -10.40625 25.046875 -11.816406 25.046875 -13.640625 C 25.046875 -17.296875 22.265625 -19.125 16.703125 -19.125 L 11.984375 -19.125 L 11.984375 -25.9375 L 21.15625 -36.328125 L 2.171875 -36.328125 L 2.171875 -44.609375 L 33.390625 -44.609375 L 33.390625 -37.921875 Z M 23.328125 -26.453125 "/></g></g></g><g fill="#000000" fill-opacity="1"><g transform="translate(830.279008, 425.553382)"><g><path d="M 0 0 L 0 -39.828125 L 7.171875 -39.828125 L 7.171875 0 Z M 0 0 "/></g></g></g><g fill="#000000" fill-opacity="1"><g transform="translate(1041.155106, 344.1484)"><g><path d="M 33.296875 0.953125 C 27.609375 0.953125 22.46875 -0.28125 17.875 -2.75 C 13.289062 -5.21875 9.679688 -8.640625 7.046875 -13.015625 C 4.421875 -17.398438 3.109375 -22.351562 3.109375 -27.875 C 3.109375 -33.394531 4.421875 -38.347656 7.046875 -42.734375 C 9.679688 -47.117188 13.289062 -50.546875 17.875 -53.015625 C 22.46875 -55.484375 27.632812 -56.71875 33.375 -56.71875 C 38.207031 -56.71875 42.570312 -55.867188 46.46875 -54.171875 C 50.375 -52.472656 53.65625 -50.03125 56.3125 -46.84375 L 48.03125 -39.1875 C 44.257812 -43.539062 39.585938 -45.71875 34.015625 -45.71875 C 30.554688 -45.71875 27.472656 -44.960938 24.765625 -43.453125 C 22.054688 -41.941406 19.945312 -39.832031 18.4375 -37.125 C 16.925781 -34.414062 16.171875 -31.332031 16.171875 -27.875 C 16.171875 -24.425781 16.925781 -21.347656 18.4375 -18.640625 C 19.945312 -15.929688 22.054688 -13.816406 24.765625 -12.296875 C 27.472656 -10.785156 30.554688 -10.03125 34.015625 -10.03125 C 39.585938 -10.03125 44.257812 -12.234375 48.03125 -16.640625 L 56.3125 -9 C 53.65625 -5.757812 50.363281 -3.289062 46.4375 -1.59375 C 42.507812 0.101562 38.128906 0.953125 33.296875 0.953125 Z M 33.296875 0.953125 "/></g></g></g><g fill="#000000" fill-opacity="1"><g transform="translate(1099.541066, 344.1484)"><g><path d="M 57.75 -55.765625 L 57.75 0 L 44.84375 0 L 44.84375 -22.859375 L 19.515625 -22.859375 L 19.515625 0 L 6.609375 0 L 6.609375 -55.765625 L 19.515625 -55.765625 L 19.515625 -33.78125 L 44.84375 -33.78125 L 44.84375 -55.765625 Z M 57.75 -55.765625 "/></g></g></g><g fill="#000000" fill-opacity="1"><g transform="translate(1180.737835, 366.545915)"><g><path d="M 23.328125 -26.453125 C 27.234375 -25.816406 30.226562 -24.359375 32.3125 -22.078125 C 34.394531 -19.804688 35.4375 -16.992188 35.4375 -13.640625 C 35.4375 -11.046875 34.753906 -8.65625 33.390625 -6.46875 C 32.035156 -4.28125 29.96875 -2.523438 27.1875 -1.203125 C 24.40625 0.109375 20.992188 0.765625 16.953125 0.765625 C 13.804688 0.765625 10.710938 0.351562 7.671875 -0.46875 C 4.640625 -1.300781 2.0625 -2.484375 -0.0625 -4.015625 L 3.953125 -11.921875 C 5.648438 -10.640625 7.613281 -9.648438 9.84375 -8.953125 C 12.070312 -8.253906 14.359375 -7.90625 16.703125 -7.90625 C 19.296875 -7.90625 21.332031 -8.40625 22.8125 -9.40625 C 24.300781 -10.40625 25.046875 -11.816406 25.046875 -13.640625 C 25.046875 -17.296875 22.265625 -19.125 16.703125 -19.125 L 11.984375 -19.125 L 11.984375 -25.9375 L 21.15625 -36.328125 L 2.171875 -36.328125 L 2.171875 -44.609375 L 33.390625 -44.609375 L 33.390625 -37.921875 Z M 23.328125 -26.453125 "/></g></g></g><g fill="#000000" fill-opacity="1"><g transform="translate(965.470518, 309.883671)"><g><path d="M 0 0 L 39.828125 0 L 39.828125 7.171875 L 0 7.171875 Z M 0 0 "/></g></g></g></svg>